<svg width="298" height="101" viewBox="0 0 298 101" fill="none" xmlns="http://www.w3.org/2000/svg">
<path d="M120.865 86.7838L112.636 56.7441H115.424L122.23 82.5763H122.465L129.271 56.7441H132.44L139.246 82.5763H139.481L146.287 56.7441H149.088L140.86 86.7861H137.925L130.958 61.3061H130.767L123.8 86.7861H120.865V86.7838Z" fill="#0B0F0C"/>
<path d="M149.931 86.7842V56.7422H167.357V59.2073H152.675V70.518H166.434V72.9831H152.675V84.3213H167.652V86.7865H149.931V86.7842Z" fill="#0B0F0C"/>
<path d="M170.311 86.7842V56.7422H173.054V84.319H187.371V86.7842H170.311Z" fill="#0B0F0C"/>
<path d="M189.415 86.7842V56.7422H192.158V84.319H206.475V86.7842H189.415Z" fill="#0B0F0C"/>
<path d="M231.916 56.7441V86.7861H229.246L211.497 61.6284H211.263V86.7861H208.519V56.7441H211.175L228.984 81.9295H229.218V56.7441H231.918H231.916Z" fill="#0B0F0C"/>
<path d="M235.767 86.7842V56.7422H253.193V59.2073H238.51V70.518H252.27V72.9831H238.51V84.3213H253.488V86.7865H235.767V86.7842Z" fill="#0B0F0C"/>
<path d="M272.458 64.2543C272.292 62.5833 271.553 61.2529 270.244 60.2655C268.934 59.278 267.286 58.7832 265.3 58.7832C263.9 58.7832 262.671 59.0225 261.61 59.5013C260.549 59.98 259.718 60.6429 259.117 61.49C258.517 62.337 258.215 63.2968 258.215 64.3717C258.215 65.1635 258.385 65.8586 258.728 66.4548C259.071 67.0509 259.532 67.5619 260.114 67.9877C260.696 68.4135 261.341 68.7772 262.05 69.081C262.759 69.3849 263.474 69.638 264.2 69.8429L267.369 70.7521C268.326 71.0168 269.286 71.3528 270.244 71.7648C271.201 72.1768 272.081 72.6924 272.877 73.3116C273.673 73.933 274.316 74.6903 274.799 75.5857C275.282 76.481 275.524 77.5536 275.524 78.8058C275.524 80.4101 275.107 81.8509 274.276 83.133C273.446 84.415 272.253 85.4278 270.697 86.1759C269.141 86.9239 267.279 87.2991 265.109 87.2991C263.065 87.2991 261.29 86.9585 259.785 86.2794C258.28 85.6004 257.096 84.659 256.236 83.4552C255.375 82.2514 254.891 80.8589 254.783 79.2753H257.601C257.697 80.4584 258.088 81.462 258.774 82.2814C259.458 83.1031 260.349 83.7268 261.444 84.1527C262.54 84.5785 263.762 84.7902 265.111 84.7902C266.607 84.7902 267.94 84.5394 269.109 84.0353C270.278 83.5312 271.197 82.8269 271.867 81.9223C272.536 81.0177 272.872 79.9635 272.872 78.762C272.872 77.7447 272.608 76.893 272.081 76.2025C271.553 75.512 270.817 74.9343 269.873 74.4647C268.93 73.9952 267.836 73.5809 266.596 73.2172L263.003 72.1607C260.646 71.4564 258.816 70.4828 257.518 69.2421C256.217 67.9992 255.566 66.4156 255.566 64.4891C255.566 62.8756 255.999 61.4554 256.864 60.2286C257.729 59.0018 258.903 58.042 260.383 57.3538C261.863 56.6656 263.53 56.3203 265.378 56.3203C267.226 56.3203 268.897 56.6633 270.336 57.3469C271.774 58.0305 272.916 58.9719 273.761 60.1711C274.606 61.3703 275.059 62.7306 275.117 64.2566H272.46L272.458 64.2543Z" fill="#0B0F0C"/>
<path d="M294.32 64.2543C294.154 62.5833 293.415 61.2529 292.106 60.2655C290.796 59.278 289.148 58.7832 287.162 58.7832C285.762 58.7832 284.533 59.0225 283.472 59.5013C282.411 59.98 281.58 60.6429 280.979 61.49C280.378 62.337 280.077 63.2968 280.077 64.3717C280.077 65.1635 280.247 65.8586 280.59 66.4548C280.933 67.0509 281.393 67.5619 281.976 67.9877C282.558 68.4135 283.203 68.7772 283.912 69.081C284.62 69.3849 285.336 69.638 286.061 69.8429L289.231 70.7521C290.188 71.0168 291.148 71.3528 292.106 71.7648C293.063 72.1768 293.942 72.6924 294.739 73.3116C295.535 73.933 296.177 74.6903 296.661 75.5857C297.144 76.481 297.386 77.5536 297.386 78.8058C297.386 80.4101 296.969 81.8509 296.138 83.133C295.307 84.415 294.115 85.4278 292.559 86.1759C291.003 86.9239 289.141 87.2991 286.971 87.2991C284.927 87.2991 283.152 86.9585 281.647 86.2794C280.141 85.6004 278.958 84.659 278.097 83.4552C277.237 82.2514 276.753 80.8589 276.645 79.2753H279.462C279.559 80.4584 279.95 81.462 280.636 82.2814C281.32 83.1031 282.211 83.7268 283.306 84.1527C284.402 84.5785 285.624 84.7902 286.973 84.7902C288.469 84.7902 289.802 84.5394 290.971 84.0353C292.14 83.5312 293.059 82.8269 293.728 81.9223C294.398 81.0177 294.734 79.9635 294.734 78.762C294.734 77.7447 294.47 76.893 293.942 76.2025C293.415 75.512 292.679 74.9343 291.735 74.4647C290.791 73.9952 289.698 73.5809 288.457 73.2172L284.864 72.1607C282.507 71.4564 280.678 70.4828 279.379 69.2421C278.079 67.9992 277.428 66.4156 277.428 64.4891C277.428 62.8756 277.86 61.4554 278.726 60.2286C279.591 59.0018 280.765 58.042 282.245 57.3538C283.725 56.6656 285.392 56.3203 287.24 56.3203C289.088 56.3203 290.759 56.6633 292.198 57.3469C293.636 58.0305 294.778 58.9719 295.623 60.1711C296.467 61.3703 296.921 62.7306 296.978 64.2566H294.322L294.32 64.2543Z" fill="#0B0F0C"/>
<path d="M112.724 49.3412V47.2719L129.402 21.762H112.636V19.2969H132.673V21.3661L115.981 46.876H132.82V49.3412H112.724Z" fill="#0B0F0C"/>
<path d="M136.19 49.3408H133.315L144.244 19.2988H147.179L158.107 49.3408H155.232L145.816 22.8642H145.611L136.193 49.3408H136.19ZM138.26 37.8253H153.163V40.2905H138.26V37.8253Z" fill="#0B0F0C"/>
<path d="M157.133 19.2988H160.303L169.206 33.558H169.47L178.374 19.2988H181.543L170.702 36.3292V49.3408H167.974V36.3292L157.133 19.2988Z" fill="#0B0F0C"/>
<path d="M183.444 49.3408H180.569L191.498 19.2988H194.433L205.361 49.3408H202.486L193.07 22.8642H192.865L183.446 49.3408H183.444ZM185.513 37.8253H200.417V40.2905H185.513V37.8253Z" fill="#0B0F0C"/>
<path d="M207.205 49.3408V19.2988H224.631V21.764H209.948V33.0746H223.708V35.5397H209.948V46.878H224.925V49.3431H207.205V49.3408Z" fill="#0B0F0C"/>
<path d="M219.694 15.1125L217.489 17.6306H216.228L218.09 14.0215L218.891 14.567L219.694 15.1125Z" fill="#0B0F0C"/>
<path opacity="0.4" d="M42.4533 1.29492L41.3393 34.9772C40.6538 34.887 39.957 34.8397 39.2467 34.8397C38.7236 34.8397 38.2049 34.8645 37.6953 34.9164L36.6265 2.58701C38.5251 2.04357 40.4689 1.61062 42.4533 1.29492Z" fill="#0B0F0C"/>
<path opacity="0.3" d="M37.1997 34.9707C35.9707 35.1308 34.7846 35.4307 33.6594 35.8546L25.0635 7.54816C26.7164 6.57401 28.4324 5.69233 30.2025 4.91211L37.2019 34.9707H37.1997Z" fill="#0B0F0C"/>
<path opacity="0.2" d="M33.1834 36.0431C32.0469 36.5144 30.978 37.1142 29.9926 37.8245L15.624 14.7315C16.9612 13.4349 18.3728 12.2149 19.8476 11.0762L33.1834 36.0431Z" fill="#0B0F0C"/>
<path opacity="0.1" d="M29.573 38.1413C28.6079 38.8877 27.7262 39.7468 26.9572 40.6961L8.47559 23.3961C9.46326 21.8785 10.5344 20.4196 11.6776 19.0215L29.573 38.1413Z" fill="#0B0F0C"/>
<path d="M98.8211 38.1952L54.9193 48.4169C54.7457 47.1992 54.4323 46.0221 53.9971 44.9082L96.7578 31.9219C97.5786 33.9491 98.2687 36.0439 98.8211 38.1929V38.1952Z" fill="#0B0F0C"/>
<path opacity="0.8" d="M92.5699 23.8076L53.8319 44.4991C53.3561 43.3738 52.7518 42.3163 52.0415 41.3421L88.6958 18.5332C90.0984 20.2019 91.3928 21.9653 92.5699 23.8076Z" fill="#0B0F0C"/>
<path opacity="0.7" d="M82.4322 12.2832L51.7715 40.9821C51.0274 40.0215 50.175 39.1511 49.2324 38.3844L77.23 8.47461C79.0475 9.6314 80.7861 10.9055 82.4322 12.2832Z" fill="#0B0F0C"/>
<path opacity="0.6" d="M69.7475 4.55082L48.8733 38.0978C47.9127 37.3627 46.8686 36.7336 45.7524 36.2307L63.7786 2.47852C65.8238 3.04451 67.815 3.73904 69.7452 4.55082H69.7475Z" fill="#0B0F0C"/>
<path opacity="0.5" d="M55.9677 0.976898L45.3176 36.0483C44.2104 35.586 43.0355 35.2478 41.8179 35.0493L49.823 0.670224C50.0101 0.670224 50.1996 0.667969 50.3867 0.667969C52.2741 0.667969 54.1367 0.771697 55.9677 0.976898Z" fill="#0B0F0C"/>
<path opacity="0.5" d="M63.2739 98.992C61.3685 99.4993 59.4202 99.8962 57.4336 100.176L58.5521 66.3086C59.2353 66.3988 59.9343 66.4461 60.6424 66.4461C61.1656 66.4461 61.6842 66.4213 62.1961 66.3695L63.2739 98.992Z" fill="#0B0F0C"/>
<path opacity="0.4" d="M74.9727 94.2165C73.2995 95.1636 71.5677 96.0159 69.7818 96.7691L62.6899 66.3136C63.9189 66.1535 65.105 65.8536 66.2302 65.4297L74.9704 94.2165H74.9727Z" fill="#0B0F0C"/>
<path opacity="0.3" d="M84.6164 87.1155C83.2522 88.3963 81.818 89.6027 80.3185 90.7256L66.7075 65.2424C67.844 64.7711 68.9129 64.1712 69.896 63.4609L84.6164 87.1155Z" fill="#0B0F0C"/>
<path opacity="0.2" d="M91.9843 78.424C90.9718 79.9416 89.8759 81.3983 88.7056 82.7919L70.3164 63.1467C71.2838 62.4003 72.1632 61.5411 72.9322 60.5918L91.982 78.424H91.9843Z" fill="#0B0F0C"/>
<path d="M45.8926 56.3736L3.90302 69.1254C3.10251 67.1095 2.42828 65.0304 1.8916 62.8972L44.9703 52.8672C45.144 54.0849 45.4574 55.262 45.8926 56.3759V56.3736Z" fill="#0B0F0C"/>
<path opacity="0.9" d="M47.8505 59.9421L11.7486 82.406C10.3753 80.7373 9.10804 78.9762 7.95801 77.1362L46.06 56.7852C46.5358 57.9104 47.1402 58.968 47.8505 59.9421Z" fill="#0B0F0C"/>
<path opacity="0.8" d="M50.6594 62.9005L22.9663 92.4855C21.1781 91.3107 19.4711 90.0253 17.8521 88.6363L48.1226 60.3027C48.8667 61.2633 49.7191 62.1338 50.6594 62.9005Z" fill="#0B0F0C"/>
<path opacity="0.7" d="M54.1393 65.0507L36.2056 98.6293C34.1829 98.0317 32.2143 97.3101 30.3066 96.4713L51.0207 63.1836C51.9813 63.9187 53.0253 64.5478 54.1415 65.0507H54.1393Z" fill="#0B0F0C"/>
<path opacity="0.6" d="M58.0716 66.2375L50.0552 100.668C47.9829 100.655 45.9422 100.515 43.9375 100.256L54.5719 65.2363C55.6813 65.6986 56.8539 66.0368 58.0716 66.2353V66.2375Z" fill="#0B0F0C"/>
<path d="M44.9164 52.4299L0.489168 53.8979C0.475638 53.6859 0.464362 53.4762 0.453088 53.262C0.410243 52.4028 0.387695 51.5392 0.387695 50.6688C0.387695 49.7984 0.410243 48.9347 0.453088 48.0756C0.466617 47.8275 0.480148 47.5817 0.495932 47.3359L22.599 48.0665L23.625 48.1004L44.9164 48.8039C44.8487 49.3992 44.8149 50.0036 44.8149 50.6169C44.8149 51.2302 44.8487 51.8368 44.9186 52.4299H44.9164Z" fill="#0B0F0C"/>
<path d="M100.388 50.6697C100.388 51.531 100.365 52.3879 100.323 53.2403C100.309 53.4884 100.296 53.7341 100.28 53.9799L77.2905 53.22L76.2645 53.1862L54.9731 52.4826C55.043 51.8873 55.0746 51.283 55.0746 50.6697C55.0746 50.0563 55.0408 49.452 54.9731 48.8567L100.28 47.3594C100.296 47.5713 100.307 47.7833 100.318 47.9953C100.365 48.8815 100.388 49.7722 100.388 50.6697Z" fill="#0B0F0C"/>
</svg>
