<svg width="41" height="41" viewBox="0 0 41 41" fill="none" xmlns="http://www.w3.org/2000/svg">
<rect x="0.257812" y="0.5" width="40" height="40" fill="#974619"/>
<path fill-rule="evenodd" clip-rule="evenodd" d="M16.3583 10.5H24.1618C27.7526 10.5 30.6646 13.2988 30.6646 16.75V24.25C30.6646 27.7013 27.7526 30.5 24.1618 30.5H16.3583C12.7674 30.5 9.85547 27.7013 9.85547 24.25V16.75C9.85547 13.2988 12.7674 10.5 16.3583 10.5ZM24.1601 28.6226C26.6702 28.6226 28.7121 26.6601 28.7121 24.2476V16.7476C28.7121 14.3351 26.6702 12.3726 24.1601 12.3726H16.3567C13.8466 12.3726 11.8047 14.3351 11.8047 16.7476V24.2476C11.8047 26.6601 13.8466 28.6226 16.3567 28.6226H24.1601Z" fill="#F7F3E9"/>
<path fill-rule="evenodd" clip-rule="evenodd" d="M15.0566 20.5005C15.0566 17.7392 17.386 15.5005 20.2589 15.5005C23.1319 15.5005 25.4612 17.7392 25.4612 20.5005C25.4612 23.2617 23.1319 25.5005 20.2589 25.5005C17.386 25.5005 15.0566 23.2617 15.0566 20.5005ZM17.0059 20.5051C17.0059 22.2276 18.4651 23.6301 20.2573 23.6301C22.0495 23.6301 23.5087 22.2276 23.5087 20.5051C23.5087 18.7814 22.0495 17.3801 20.2573 17.3801C18.4651 17.3801 17.0059 18.7814 17.0059 20.5051Z" fill="#F7F3E9"/>
<ellipse cx="25.8534" cy="15.1262" rx="0.693205" ry="0.66625" fill="#F7F3E9"/>
</svg>
