<svg width="25" height="25" viewBox="0 0 25 25" fill="none" xmlns="http://www.w3.org/2000/svg">
<rect x="0.487061" y="0.470703" width="24" height="24" fill="#974619"/>
<path fill-rule="evenodd" clip-rule="evenodd" d="M10.1461 6.4707H14.8282C16.9827 6.4707 18.7299 8.14995 18.7299 10.2207V14.7207C18.7299 16.7915 16.9827 18.4707 14.8282 18.4707H10.1461C7.99157 18.4707 6.24438 16.7915 6.24438 14.7207V10.2207C6.24438 8.14995 7.99157 6.4707 10.1461 6.4707ZM14.8282 17.3442C16.3343 17.3442 17.5594 16.1667 17.5594 14.7192V10.2192C17.5594 8.77169 16.3343 7.59419 14.8282 7.59419H10.1462C8.64009 7.59419 7.41495 8.77169 7.41495 10.2192V14.7192C7.41495 16.1667 8.64009 17.3442 10.1462 17.3442H14.8282Z" fill="#F7F3E9"/>
<path fill-rule="evenodd" clip-rule="evenodd" d="M9.36572 12.4707C9.36572 10.814 10.7633 9.4707 12.4871 9.4707C14.2109 9.4707 15.6085 10.814 15.6085 12.4707C15.6085 14.1275 14.2109 15.4707 12.4871 15.4707C10.7633 15.4707 9.36572 14.1275 9.36572 12.4707ZM10.5362 12.4735C10.5362 13.507 11.4117 14.3485 12.4871 14.3485C13.5624 14.3485 14.4379 13.507 14.4379 12.4735C14.4379 11.4393 13.5624 10.5985 12.4871 10.5985C11.4117 10.5985 10.5362 11.4393 10.5362 12.4735Z" fill="#F7F3E9"/>
<ellipse cx="15.8432" cy="9.24643" rx="0.415923" ry="0.39975" fill="#F7F3E9"/>
</svg>
