<svg width="41" height="41" viewBox="0 0 41 41" fill="none" xmlns="http://www.w3.org/2000/svg">
<rect x="0.257812" y="0.5" width="40" height="40" fill="#974619"/>
<path d="M29.1075 19.0741V15.583C27.4726 15.583 26.2249 15.1466 25.4198 14.2984C24.5934 13.3304 24.1304 12.1045 24.1106 10.8319V10.5799L20.8101 10.5V24.6795C20.6968 25.2981 20.3965 25.8672 19.9497 26.3097C19.5028 26.7523 18.9309 27.0471 18.3112 27.1544C17.6915 27.2616 17.0538 27.1762 16.4842 26.9095C15.9145 26.6428 15.4405 26.2078 15.1259 25.6632C14.8114 25.1186 14.6715 24.4905 14.7252 23.8639C14.7789 23.2373 15.0236 22.6422 15.4262 22.159C15.8288 21.6758 16.3699 21.3278 16.9766 21.1619C17.5833 20.996 18.2262 21.0203 18.8187 21.2314V17.851C18.4732 17.7944 18.1238 17.7656 17.7738 17.7649C16.5144 17.7649 15.2833 18.1384 14.2362 18.838C13.189 19.5377 12.3729 20.5322 11.891 21.6957C11.409 22.8592 11.2829 24.1395 11.5286 25.3747C11.7743 26.6099 12.3807 27.7445 13.2713 28.635C14.1618 29.5255 15.2964 30.132 16.5316 30.3776C17.7667 30.6233 19.047 30.4972 20.2106 30.0153C21.3741 29.5334 22.3685 28.7172 23.0682 27.6701C23.7679 26.6229 24.1413 25.3918 24.1413 24.1325C24.1407 23.8715 24.1242 23.6108 24.0922 23.3519V17.728C25.593 18.6653 27.3391 19.1339 29.1075 19.0741Z" fill="white"/>
</svg>
