<svg width="25" height="25" viewBox="0 0 25 25" fill="none" xmlns="http://www.w3.org/2000/svg">
<rect x="0.487061" y="0.470703" width="24" height="24" fill="#974619"/>
<path d="M17.7975 11.6151V9.52049C16.8166 9.52049 16.068 9.25866 15.5849 8.74974C15.089 8.16894 14.8113 7.43341 14.7994 6.66984V6.51864L12.819 6.4707V14.9784C12.7511 15.3496 12.5709 15.691 12.3028 15.9565C12.0347 16.2221 11.6916 16.399 11.3197 16.4633C10.9479 16.5277 10.5653 16.4764 10.2235 16.3164C9.88174 16.1564 9.59729 15.8954 9.40856 15.5686C9.21984 15.2418 9.13592 14.865 9.16813 14.489C9.20034 14.1131 9.34714 13.756 9.58871 13.4661C9.83027 13.1762 10.155 12.9674 10.519 12.8679C10.883 12.7683 11.2687 12.7829 11.6242 12.9095V10.8813C11.417 10.8473 11.2073 10.83 10.9973 10.8296C10.2417 10.8296 9.503 11.0537 8.87472 11.4735C8.24643 11.8933 7.75675 12.49 7.46758 13.1881C7.17841 13.8862 7.10275 14.6544 7.25017 15.3955C7.39759 16.1366 7.76146 16.8174 8.29577 17.3517C8.83008 17.886 9.51083 18.2499 10.2519 18.3973C10.993 18.5447 11.7612 18.469 12.4593 18.1799C13.1575 17.8907 13.7541 17.401 14.1739 16.7727C14.5937 16.1445 14.8178 15.4058 14.8178 14.6502C14.8174 14.4936 14.8076 14.3372 14.7883 14.1818V10.8075C15.6888 11.3699 16.7365 11.6511 17.7975 11.6151Z" fill="white"/>
</svg>
