<svg width="120" height="40" viewBox="0 0 120 40" fill="none" xmlns="http://www.w3.org/2000/svg">
<path d="M48.5781 34.4469L45.2866 22.431H46.4016L49.124 32.7639H49.218L51.9404 22.431H53.2082L55.9307 32.7639H56.0246L58.7471 22.431H59.8676L56.5761 34.4478H55.4022L52.6153 24.2558H52.5389L49.752 34.4478H48.5781V34.4469Z" fill="white"/>
<path d="M60.2046 34.4469V22.4301H67.1751V23.4162H61.302V27.9404H66.8059V28.9265H61.302V33.4618H67.293V34.4478H60.2046V34.4469Z" fill="white"/>
<path d="M68.3564 34.4469V22.4301H69.4539V33.4609H75.1806V34.4469H68.3564Z" fill="white"/>
<path d="M75.998 34.4469V22.4301H77.0955V33.4609H82.8222V34.4469H75.998Z" fill="white"/>
<path d="M92.9987 22.431V34.4478H91.9307L84.8313 24.3847H84.7374V34.4478H83.6399V22.431H84.7024L91.8257 32.5052H91.9196V22.431H92.9996H92.9987Z" fill="white"/>
<path d="M94.5388 34.4469V22.4301H101.509V23.4162H95.6363V27.9404H101.14V28.9265H95.6363V33.4618H101.627V34.4478H94.5388V34.4469Z" fill="white"/>
<path d="M109.215 25.4353C109.149 24.7669 108.854 24.2348 108.33 23.8398C107.806 23.4448 107.147 23.2469 106.352 23.2469C105.792 23.2469 105.301 23.3426 104.876 23.5341C104.452 23.7256 104.119 23.9908 103.879 24.3296C103.639 24.6684 103.518 25.0523 103.518 25.4823C103.518 25.799 103.586 26.0771 103.724 26.3155C103.861 26.554 104.045 26.7584 104.278 26.9287C104.511 27.099 104.769 27.2445 105.052 27.366C105.336 27.4875 105.622 27.5888 105.912 27.6708L107.18 28.0344C107.563 28.1403 107.947 28.2747 108.33 28.4395C108.713 28.6043 109.064 28.8106 109.383 29.0582C109.702 29.3068 109.958 29.6097 110.152 29.9679C110.345 30.326 110.442 30.7551 110.442 31.2559C110.442 31.8976 110.275 32.474 109.943 32.9868C109.61 33.4996 109.134 33.9047 108.511 34.204C107.889 34.5032 107.144 34.6533 106.276 34.6533C105.458 34.6533 104.748 34.517 104.146 34.2454C103.544 33.9738 103.071 33.5972 102.726 33.1157C102.382 32.6342 102.189 32.0772 102.146 31.4437H103.272C103.311 31.917 103.468 32.3184 103.742 32.6462C104.015 32.9748 104.372 33.2243 104.81 33.3947C105.248 33.565 105.737 33.6497 106.277 33.6497C106.875 33.6497 107.408 33.5494 107.876 33.3477C108.344 33.1461 108.711 32.8644 108.979 32.5025C109.247 32.1407 109.381 31.719 109.381 31.2384C109.381 30.8315 109.275 30.4908 109.064 30.2146C108.854 29.9384 108.559 29.7073 108.182 29.5195C107.804 29.3317 107.367 29.166 106.87 29.0205L105.433 28.5979C104.491 28.3162 103.759 27.9267 103.239 27.4305C102.719 26.9333 102.459 26.2999 102.459 25.5292C102.459 24.8838 102.632 24.3158 102.978 23.825C103.324 23.3343 103.794 22.9504 104.386 22.6751C104.978 22.3998 105.644 22.2617 106.383 22.2617C107.123 22.2617 107.791 22.3989 108.367 22.6723C108.942 22.9458 109.399 23.3223 109.737 23.802C110.074 24.2817 110.256 24.8258 110.279 25.4362H109.216L109.215 25.4353Z" fill="white"/>
<path d="M117.96 25.4353C117.894 24.7669 117.598 24.2348 117.074 23.8398C116.551 23.4448 115.891 23.2469 115.097 23.2469C114.537 23.2469 114.045 23.3426 113.621 23.5341C113.196 23.7256 112.864 23.9908 112.624 24.3296C112.383 24.6684 112.263 25.0523 112.263 25.4823C112.263 25.799 112.331 26.0771 112.468 26.3155C112.605 26.554 112.79 26.7584 113.022 26.9287C113.255 27.099 113.513 27.2445 113.797 27.366C114.08 27.4875 114.367 27.5888 114.657 27.6708L115.924 28.0344C116.307 28.1403 116.691 28.2747 117.074 28.4395C117.457 28.6043 117.809 28.8106 118.128 29.0582C118.446 29.3068 118.703 29.6097 118.896 29.9679C119.09 30.326 119.186 30.7551 119.186 31.2559C119.186 31.8976 119.02 32.474 118.687 32.9868C118.355 33.4996 117.878 33.9047 117.256 34.204C116.633 34.5032 115.889 34.6533 115.02 34.6533C114.203 34.6533 113.493 34.517 112.891 34.2454C112.289 33.9738 111.815 33.5972 111.471 33.1157C111.127 32.6342 110.933 32.0772 110.89 31.4437H112.017C112.056 31.917 112.212 32.3184 112.487 32.6462C112.76 32.9748 113.116 33.2243 113.555 33.3947C113.993 33.565 114.482 33.6497 115.021 33.6497C115.62 33.6497 116.153 33.5494 116.62 33.3477C117.088 33.1461 117.456 32.8644 117.723 32.5025C117.991 32.1407 118.126 31.719 118.126 31.2384C118.126 30.8315 118.02 30.4908 117.809 30.2146C117.598 29.9384 117.304 29.7073 116.926 29.5195C116.549 29.3317 116.111 29.166 115.615 29.0205L114.178 28.5979C113.235 28.3162 112.503 27.9267 111.984 27.4305C111.464 26.9333 111.203 26.2999 111.203 25.5292C111.203 24.8838 111.376 24.3158 111.722 23.825C112.069 23.3343 112.538 22.9504 113.13 22.6751C113.722 22.3998 114.389 22.2617 115.128 22.2617C115.867 22.2617 116.536 22.3989 117.111 22.6723C117.687 22.9458 118.143 23.3223 118.481 23.802C118.819 24.2817 119 24.8258 119.023 25.4362H117.961L117.96 25.4353Z" fill="white"/>
<path d="M45.3216 19.4697V18.642L51.9929 8.43802H45.2866V7.45197H53.3012V8.27966L46.6244 18.4836H53.3601V19.4697H45.3216Z" fill="white"/>
<path d="M54.7083 19.47H53.5583L57.9298 7.45319H59.1037L63.4751 19.47H62.3251L58.5586 8.87933H58.4767L54.7092 19.47H54.7083ZM55.536 14.8638H61.4974V15.8499H55.536V14.8638Z" fill="white"/>
<path d="M63.0854 7.45319H64.3532L67.9145 13.1568H68.0203L71.5816 7.45319H72.8493L68.5129 14.2654V19.47H67.4219V14.2654L63.0854 7.45319Z" fill="white"/>
<path d="M73.6099 19.47H72.46L76.8314 7.45319H78.0053L82.3767 19.47H81.2268L77.4602 8.87933H77.3783L73.6108 19.47H73.6099ZM74.4376 14.8638H80.3991V15.8499H74.4376V14.8638Z" fill="white"/>
<path d="M83.114 19.47V7.45319H90.0845V8.43924H84.2115V12.9635H89.7153V13.9496H84.2115V18.4849H90.2024V19.4709H83.114V19.47Z" fill="white"/>
<path d="M88.1097 5.77808L87.2277 6.78532H86.7231L87.468 5.34167L87.7884 5.55988L88.1097 5.77808Z" fill="white"/>
<path opacity="0.4" d="M17.2133 0.250488L16.7677 13.7234C16.4935 13.6874 16.2148 13.6684 15.9307 13.6684C15.7214 13.6684 15.514 13.6783 15.3101 13.6991L14.8826 0.767326C15.642 0.549947 16.4196 0.376766 17.2133 0.250488Z" fill="white"/>
<path opacity="0.3" d="M15.1118 13.7208C14.6202 13.7848 14.1458 13.9048 13.6957 14.0744L10.2573 2.75175C10.9185 2.36209 11.6049 2.00941 12.3129 1.69733L15.1127 13.7208H15.1118Z" fill="white"/>
<path opacity="0.2" d="M13.5052 14.1502C13.0506 14.3387 12.6231 14.5787 12.2289 14.8628L6.48145 5.62557C7.01632 5.10693 7.58097 4.61895 8.17086 4.16345L13.5052 14.1502Z" fill="white"/>
<path opacity="0.1" d="M12.061 14.989C11.675 15.2876 11.3223 15.6312 11.0147 16.0109L3.62207 9.09092C4.01714 8.48388 4.44558 7.9003 4.90289 7.34106L12.061 14.989Z" fill="white"/>
<path d="M39.7605 15.0115L22.1997 19.1002C22.1303 18.6131 22.0049 18.1422 21.8308 17.6967L38.9351 12.5021C39.2635 13.313 39.5395 14.151 39.7605 15.0106V15.0115Z" fill="white"/>
<path opacity="0.8" d="M37.26 9.25574L21.7648 17.5324C21.5744 17.0823 21.3327 16.6592 21.0486 16.2696L35.7103 7.146C36.2714 7.81346 36.7891 8.51882 37.26 9.25574Z" fill="white"/>
<path opacity="0.7" d="M33.2047 4.64601L20.9404 16.1256C20.6428 15.7413 20.3018 15.3932 19.9248 15.0865L31.1239 3.12256C31.8509 3.58528 32.5463 4.0949 33.2047 4.64601Z" fill="white"/>
<path opacity="0.6" d="M28.131 1.55372L19.7813 14.9725C19.3971 14.6785 18.9794 14.4268 18.533 14.2257L25.7434 0.724792C26.5615 0.951191 27.358 1.229 28.1301 1.55372H28.131Z" fill="white"/>
<path opacity="0.5" d="M22.6189 0.123511L18.3589 14.1521C17.916 13.9672 17.4461 13.8319 16.959 13.7525L20.161 0.00084095C20.2359 0.00084095 20.3117 -6.10352e-05 20.3865 -6.10352e-05C21.1415 -6.10352e-05 21.8865 0.0414303 22.6189 0.123511Z" fill="white"/>
<path opacity="0.5" d="M25.5415 39.3295C24.7793 39.5325 24 39.6912 23.2053 39.8031L23.6527 26.2562C23.926 26.2922 24.2056 26.3112 24.4888 26.3112C24.6981 26.3112 24.9056 26.3013 25.1103 26.2805L25.5415 39.3295Z" fill="white"/>
<path opacity="0.4" d="M30.221 37.4195C29.5517 37.7984 28.859 38.1393 28.1446 38.4406L25.3079 26.2584C25.7994 26.1943 26.2739 26.0744 26.724 25.9048L30.2201 37.4195H30.221Z" fill="white"/>
<path opacity="0.3" d="M34.0786 34.5793C33.5329 35.0916 32.9592 35.5741 32.3594 36.0233L26.915 25.83C27.3696 25.6415 27.7972 25.4016 28.1904 25.1174L34.0786 34.5793Z" fill="white"/>
<path opacity="0.2" d="M37.0256 31.1023C36.6206 31.7094 36.1822 32.292 35.7141 32.8495L28.3584 24.9914C28.7453 24.6928 29.0971 24.3492 29.4047 23.9694L37.0247 31.1023H37.0256Z" fill="white"/>
<path d="M18.589 22.2823L1.7931 27.383C1.47289 26.5766 1.2032 25.745 0.988525 24.8917L18.22 20.8797C18.2895 21.3668 18.4149 21.8376 18.589 22.2832V22.2823Z" fill="white"/>
<path opacity="0.9" d="M19.3721 23.7095L4.93128 32.6951C4.38197 32.0276 3.87505 31.3231 3.41504 30.5871L18.6559 22.4467C18.8462 22.8968 19.0879 23.3198 19.3721 23.7095Z" fill="white"/>
<path opacity="0.8" d="M20.4958 24.8932L9.4185 36.7272C8.70323 36.2573 8.02043 35.7431 7.3728 35.1875L19.481 23.8541C19.7787 24.2383 20.1197 24.5865 20.4958 24.8932Z" fill="white"/>
<path opacity="0.7" d="M21.8876 25.7533L14.7141 39.1848C13.905 38.9457 13.1176 38.6571 12.3545 38.3216L20.6401 25.0065C21.0244 25.3005 21.442 25.5522 21.8885 25.7533H21.8876Z" fill="white"/>
<path opacity="0.6" d="M23.4605 26.2275L20.254 39.9999C19.425 39.9945 18.6087 39.9386 17.8069 39.8349L22.0606 25.827C22.5044 26.0119 22.9735 26.1472 23.4605 26.2266V26.2275Z" fill="white"/>
<path d="M18.1985 20.7048L0.427552 21.292C0.42214 21.2072 0.41763 21.1233 0.41312 21.0376C0.395982 20.6939 0.386963 20.3485 0.386963 20.0003C0.386963 19.6521 0.395982 19.3067 0.41312 18.963C0.418532 18.8638 0.423944 18.7655 0.430258 18.6672L9.27151 18.9594L9.68192 18.9729L18.1985 19.2544C18.1714 19.4925 18.1579 19.7342 18.1579 19.9796C18.1579 20.2249 18.1714 20.4675 18.1994 20.7048H18.1985Z" fill="white"/>
<path d="M40.3872 20.0006C40.3872 20.3451 40.3781 20.6879 40.361 21.0288C40.3556 21.128 40.3502 21.2264 40.3439 21.3247L31.1481 21.0207L30.7377 21.0072L22.2212 20.7258C22.2492 20.4876 22.2618 20.2459 22.2618 20.0006C22.2618 19.7552 22.2483 19.5135 22.2212 19.2754L40.3439 18.6765C40.3502 18.7612 40.3547 18.846 40.3592 18.9308C40.3781 19.2853 40.3872 19.6416 40.3872 20.0006Z" fill="white"/>
</svg>
